<svg width="96" height="28" viewBox="0 0 96 28" xmlns="http://www.w3.org/2000/svg"><path d="M12.564 5.077c1.212 0 2.028-.796 2.028-1.98 0-1.18-.833-2.001-2.028-2.001h-1.132v3.98h1.132zm0-5.034c1.866 0 3.22 1.276 3.22 3.036 0 1.769-1.354 3.051-3.22 3.051h-2.273V.043h2.273zM38.766 6.13V.043h1.14V6.13h-1.14zM29.496.043h4.538v1.053h-3.398v1.543h3.012v1.05h-3.012V6.13h-1.14V.043zM21.48 5.094h3.42V6.13h-4.564V.043h4.52v1.036h-3.376v1.465h2.995v1.034H21.48v1.516zm26.76-1.437l-.961-2.235-.953 2.235h1.914zM47.824.03l2.659 6.1H49.27l-.605-1.447h-2.764l-.613 1.448H44.11l.028-.066L46.78 0h1.033l.011.029zm12.28.014V6.13h-.948L55.93 1.955V6.13h-1.123V.043h1.04l3.132 4.055V.043h1.124zm9.372 0v1.07h-1.894V6.13h-1.15V1.113h-1.896V.043h4.94zm8.714 5.034V6.13h-4.281V.043h1.14v5.034h3.14zM86.818.043l-2.413 3.666V6.13h-1.15V3.735L80.845.043h1.347l1.648 2.615L85.503.043h1.315zM14.065 11.965V27.47h-3.406a.489.489 0 0 1-.5-.477V21.38H3.906v5.612a.488.488 0 0 1-.5.477H0V11.965h3.406c.276 0 .499.215.499.478v5.523h6.255v-5.523c0-.263.222-.478.5-.478h3.405zm19.65 0v8.729c0 4.458-2.66 7.014-7.292 7.014-4.572 0-7.193-2.519-7.193-6.908v-8.835h3.406c.276 0 .499.215.499.478v8.27c0 2.31 1.186 3.584 3.337 3.584 2.15 0 3.335-1.234 3.335-3.475v-8.379a.49.49 0 0 1 .498-.478h3.41zm21.734 0V27.47h-3.885v-9.55l-4.036 5.667c-.186.26-.64.26-.825 0l-3.99-5.6v9.483h-3.836V11.965h3.094c.633 0 1.213.3 1.549.807l3.642 5.472 3.643-5.472a1.843 1.843 0 0 1 1.549-.807h3.095zm10.852 8.82h3.802l-1.902-4.335-1.9 4.335zm3.831-8.642l6.982 15.327H73.01l-1.483-3.402h-6.649l-1.486 3.402h-4.01l6.982-15.327a.5.5 0 0 1 .457-.287h2.855c.199 0 .38.112.456.287zm25.68-.178V27.47H92.77a.506.506 0 0 1-.393-.183l-7.47-9.16v9.343h-3.86V11.965h3.298c.154 0 .296.066.393.183l7.211 8.855v-9.038h3.862z" fill="#616161" fill-rule="nonzero"/></svg>