<svg width="54" height="31" viewBox="0 0 54 31" xmlns="http://www.w3.org/2000/svg"><path d="M12.632.74h40.272c.872 0 1.323.702 1.007 1.569l-1.144 3.139c-.316.867-1.28 1.57-2.152 1.57H10.343c-.872 0-1.323-.703-1.007-1.57l1.145-3.14C10.797 1.443 11.76.74 12.632.74zM8.341 12.51h40.271c.873 0 1.323.704 1.007 1.57l-1.144 3.14c-.316.866-1.28 1.57-2.152 1.57H6.052c-.872 0-1.323-.704-1.007-1.57l1.144-3.14c.316-.866 1.28-1.57 2.152-1.57zM4.049 24.284h40.272c.872 0 1.323.702 1.007 1.57l-1.145 3.138c-.316.867-1.279 1.57-2.151 1.57H1.76c-.872 0-1.323-.703-1.007-1.57l1.145-3.139c.316-.867 1.279-1.57 2.151-1.57z" fill="#FAFAFA" fill-rule="nonzero"/></svg>