<svg width="46" height="33" viewBox="0 0 46 33" xmlns="http://www.w3.org/2000/svg"><path d="M24.891 12.179L42.316.952c.91-.587 1.92-.496 2.255.203l1.212 2.532c.334.699-.132 1.74-1.043 2.327L28.477 16.493 37.19 26.97c.488.586.204 1.628-.635 2.327l-3.036 2.532c-.838.699-1.913.79-2.4.203l-9.335-11.227L4.357 32.033c-.91.587-1.92.496-2.254-.203L.89 29.298c-.335-.699.132-1.74 1.042-2.327l16.263-10.478L9.484 6.014c-.488-.586-.203-1.628.635-2.327l3.036-2.532c.839-.699 1.914-.79 2.401-.203l9.335 11.227z" fill="#FAFAFA" fill-rule="nonzero"/></svg>