<svg width="258" height="35" viewBox="0 0 258 35" xmlns="http://www.w3.org/2000/svg"><path d="M20.024 12.812c-1.853-.272-3.933.08-3.933.08a.408.408 0 0 0-.329.408l.083 2.098a.303.303 0 0 0 .357.295s1.697-.27 2.976-.082c2.544.372 4.288 2.37 3.859 5.345-.37 2.662-2.351 4.46-5.199 4.042-1.329-.195-2.731-.841-2.731-.841a.331.331 0 0 0-.448.178l-2.12 5.214c-.073.178-.003.235.154.125l2.782-1.94a.86.86 0 0 1 .622-.112s.636.167 1.144.241c5.193.762 8.7-2.17 9.326-6.516.648-4.502-1.915-7.857-6.543-8.535zM16.293 9.63c1.332.172 2.746.793 2.746.793a.331.331 0 0 0 .445-.187l2.033-5.265c.069-.18-.001-.234-.156-.121l-2.754 2.002a.857.857 0 0 1-.619.123s-.64-.155-1.148-.22c-5.206-.668-8.66 2.327-9.21 6.682-.568 4.514 2.054 7.822 6.693 8.417 1.858.238 3.93-.151 3.93-.151a.408.408 0 0 0 .322-.414l-.12-2.096a.303.303 0 0 0-.361-.288s-1.693.3-2.975.136c-2.55-.327-4.329-2.293-3.952-5.276.323-2.668 2.272-4.5 5.126-4.135zm2.69-6.664c7.812 1.041 13.328 8.301 12.296 16.183-1.033 7.882-8.229 13.447-16.041 12.405-7.18-.957-12.421-7.167-12.421-14.285 0-.626.04-1.26.124-1.898 1.032-7.88 8.23-13.446 16.042-12.405zM.148 15c-1.235 9.436 5.37 18.126 14.721 19.372 9.352 1.247 17.966-5.415 19.203-14.85C35.306 10.087 28.703 1.397 19.352.15 9.999-1.097 1.385 5.565.148 15zm248.324 6.745l.879-1.05c1.31 1.195 2.564 1.792 4.304 1.792 1.685 0 2.797-.905 2.797-2.153v-.036c0-1.176-.628-1.846-3.263-2.406-2.887-.633-4.214-1.574-4.214-3.654V14.2c0-1.99 1.739-3.455 4.124-3.455 1.829 0 3.138.525 4.411 1.556l-.825 1.104c-1.165-.96-2.33-1.375-3.622-1.375-1.632 0-2.672.904-2.672 2.044v.036c0 1.194.646 1.863 3.407 2.46 2.798.616 4.089 1.647 4.089 3.582v.037c0 2.17-1.794 3.581-4.286 3.581-1.99 0-3.623-.669-5.129-2.026zm-7.946-4.36c1.883 0 3.228-.977 3.228-2.605v-.036c0-1.556-1.184-2.496-3.21-2.496h-3.873v5.137h3.855zm-5.272-6.458h5.398c1.542 0 2.78.47 3.568 1.266.61.616.969 1.502.969 2.497v.036c0 2.099-1.435 3.329-3.407 3.69l3.855 5.174h-1.74l-3.64-4.92h-3.586v4.92h-1.417V10.927zm-13.093 0h9.074v1.302h-7.657v4.324h6.85v1.303h-6.85v4.432h7.747v1.302h-9.164V10.927zm-15.245 0h1.327l7.908 10.149V10.927h1.38V23.59h-1.129l-8.105-10.384V23.59h-1.38V10.927zm-9.38 1.32h-4.214v-1.32h9.862v1.32h-4.214V23.59h-1.434V12.248zm-11.605 5.138c1.883 0 3.228-.977 3.228-2.605v-.036c0-1.556-1.184-2.496-3.21-2.496h-3.873v5.137h3.855zm-5.272-6.458h5.398c1.542 0 2.78.47 3.568 1.266.61.616.968 1.502.968 2.497v.036c0 2.099-1.434 3.329-3.406 3.69l3.855 5.174h-1.74l-3.64-4.92h-3.586v4.92h-1.417V10.927zm-6.745 8.015l-2.85-6.441-2.87 6.44h5.72zm-3.496-8.105h1.327l5.72 12.753h-1.524l-1.47-3.347h-6.833l-1.488 3.347h-1.452l5.72-12.753zm-11.21 6.983c2.08 0 3.443-1.122 3.443-2.787v-.036c0-1.809-1.344-2.75-3.371-2.75h-3.174v5.573h3.102zm-4.519-6.893h4.699c2.833 0 4.697 1.52 4.697 4.016v.036c0 2.732-2.259 4.143-4.93 4.143h-3.049v4.468h-1.417V10.927zm-12.806 7.67l-4.824-7.67h3.228l2.995 5.083 3.048-5.083h3.138l-4.824 7.616v5.047h-2.761v-4.993zm-13.378-7.67h2.76v10.13h6.259v2.533h-9.02V10.927zm-12.178 0h2.761v10.13h6.258v2.533h-9.019V10.927zm-13.452 0h9.468v2.479h-6.724v2.568h5.917v2.478h-5.917v2.66h6.814v2.478h-9.558V10.927zm-15.603 0h2.546l5.881 7.797v-7.797h2.726V23.59h-2.349l-6.079-8.05v8.05h-2.725V10.927zm-15.604 0h2.546l5.882 7.797v-7.797h2.726V23.59h-2.35l-6.078-8.05v8.05h-2.726V10.927zm-5.884 6.368v-.036c0-2.17-1.578-3.98-3.802-3.98s-3.765 1.773-3.765 3.944v.036c0 2.17 1.578 3.98 3.8 3.98 2.224 0 3.767-1.773 3.767-3.944zm-10.454 0v-.036c0-3.6 2.815-6.549 6.688-6.549 3.873 0 6.653 2.912 6.653 6.513v.036c0 3.6-2.816 6.548-6.689 6.548s-6.652-2.912-6.652-6.512zm-13.595 0v-.036c0-3.6 2.69-6.549 6.545-6.549 2.367 0 3.783.796 4.949 1.954l-1.758 2.044c-.968-.886-1.954-1.43-3.21-1.43-2.115 0-3.64 1.774-3.64 3.945v.036c0 2.17 1.49 3.98 3.64 3.98 1.435 0 2.314-.579 3.3-1.484l1.757 1.791c-1.291 1.393-2.725 2.261-5.146 2.261-3.694 0-6.437-2.876-6.437-6.512z" fill="#FAFAFA" fill-rule="nonzero"/></svg>