<?xml version="1.0" encoding="UTF-8"?>
<svg width="54px" height="54px" viewBox="0 0 54 54" version="1.1" xmlns="http://www.w3.org/2000/svg" xmlns:xlink="http://www.w3.org/1999/xlink">
    <!-- Generator: sketchtool 52.6 (67491) - http://www.bohemiancoding.com/sketch -->
    <title>037C8308-4288-4E12-AEB5-0DF47B98F652</title>
    <desc>Created with sketchtool.</desc>
    <g id="FinalPages" stroke="none" stroke-width="1" fill="none" fill-rule="evenodd">
        <g id="D.Homepage" transform="translate(-20.000000, -20.000000)" fill="#616161" fill-rule="nonzero">
            <g id="Nav/D/Collapsed">
                <g id="Nav/.SubItems/Logo+MenuBase">
                    <g id="Logo/Mark" transform="translate(20.652174, 20.652174)">
                        <path d="M30.9922737,19.6551107 C28.1237158,19.2384022 24.9050018,19.7783838 24.9050018,19.7783838 C24.613079,19.8267856 24.3846834,20.1088768 24.3960275,20.4038248 L24.5238383,23.6225389 C24.5359387,23.9174868 24.7847538,24.1216815 25.0759204,24.0755487 C25.0759204,24.0755487 27.7032259,23.6618652 29.6831586,23.9500067 C33.6203356,24.5202394 36.3187312,27.5854293 35.6547202,32.1503161 C35.0814624,36.2334546 32.0162725,38.9915961 27.6086913,38.351786 C25.5523747,38.0530566 23.3811041,37.0608215 23.3811041,37.0608215 C23.1126258,36.9383046 22.8002835,37.0615777 22.6883545,37.3345937 L19.4068695,45.3337335 C19.2949405,45.6067494 19.4023318,45.6937212 19.6450967,45.5258278 L23.9513368,42.548366 C24.1948579,42.3797162 24.6274482,42.3033323 24.9133208,42.3774474 C24.9133208,42.3774474 25.8987495,42.6323127 26.6845211,42.7465105 C34.7222309,43.9149582 40.1485169,39.4151112 41.1180638,32.7500436 C42.1223994,25.8429676 38.1549713,20.6957476 30.9922737,19.6551107 M25.2173444,14.7756137 C27.278955,15.038798 29.4676201,15.9917068 29.4676201,15.9917068 C29.7391234,16.109686 30.0484407,15.981119 30.155832,15.7050779 L33.3019435,7.62804138 C33.4093348,7.35275662 33.3004309,7.26880989 33.0606912,7.44199728 L28.7990714,10.5139938 C28.5593316,10.6871812 28.1274976,10.7718842 27.8408687,10.703063 C27.8408687,10.703063 26.8516586,10.4648358 26.0636182,10.3650072 C18.006245,9.34025212 12.6608805,13.9353901 11.8108254,20.6163396 C10.9297629,27.5408103 14.9879443,32.6161841 22.1680363,33.5297665 C25.0434007,33.8950482 28.251527,33.2983458 28.251527,33.2983458 C28.5426935,33.2438938 28.7665515,32.9580212 28.7491571,32.6630732 L28.5646256,29.4473842 C28.5479875,29.1524362 28.295391,28.9527791 28.0042244,29.0042059 C28.0042244,29.0042059 25.3844816,29.4655348 23.4000112,29.2121821 C19.4537588,28.7115268 16.7009113,25.6954948 17.2840007,21.1192637 C17.7838996,17.0262935 20.7999316,14.2144563 25.2173444,14.7756137 M29.3806481,4.55150755 C41.470489,6.14952037 50.0088541,17.2872084 48.4115975,29.3793177 C46.8128284,41.4706708 35.6758962,50.0090356 23.5845427,48.4110227 C12.4710551,46.9430895 4.35998643,37.416271 4.35998643,26.4956344 C4.35998643,25.5344066 4.42275741,24.562591 4.55208074,23.5839688 C6.15009362,11.4926158 17.2885383,2.95425101 29.3806481,4.55150755 M0.229958865,23.0122239 C-1.68190896,37.4881178 8.53917239,50.8205212 23.0135546,52.7331452 C37.4871806,54.6450129 50.8195848,44.4246885 52.7337214,29.9510634 C54.644833,15.4751695 44.4252642,2.14276605 29.9516382,0.230142067 C15.4764997,-1.68248192 2.14333924,8.53784253 0.229958865,23.0122239" id="CP-Logo"></path>
                    </g>
                </g>
            </g>
        </g>
    </g>
</svg>