<svg width="25" height="21" viewBox="0 0 25 21" xmlns="http://www.w3.org/2000/svg"><path d="M16.874.833h.557c.017.004.035.01.053.011a4.96 4.96 0 0 1 3.225 1.484c.05.052.097.068.17.052a9.992 9.992 0 0 0 2.976-1.144l.061-.028a.1.1 0 0 1 .01.014c-.388 1.151-1.1 2.05-2.126 2.706a9.786 9.786 0 0 0 2.783-.755c-.013.025-.015.034-.021.04a9.56 9.56 0 0 1-.971 1.221A9.76 9.76 0 0 1 22.19 5.68c-.048.036-.062.075-.062.133.002.306.008.613 0 .92-.011.32-.033.644-.06.964a12.87 12.87 0 0 1-.32 1.908 14.827 14.827 0 0 1-1.953 4.577 14.05 14.05 0 0 1-2.578 2.994 13.286 13.286 0 0 1-3.45 2.182c-.915.397-1.864.686-2.845.877a13.04 13.04 0 0 1-2.172.255c-.638.017-1.278.029-1.917-.027a13.963 13.963 0 0 1-4.275-1.044 14.064 14.064 0 0 1-2.116-1.105c-.01-.006-.017-.016-.025-.023 1.305.13 2.588.036 3.85-.317a9.757 9.757 0 0 0 3.437-1.743.17.17 0 0 0-.072-.019c-.115-.01-.23-.013-.345-.025a4.95 4.95 0 0 1-3.21-1.69 4.924 4.924 0 0 1-.949-1.647c-.026-.073-.016-.084.06-.07a5.018 5.018 0 0 0 2.058-.075c.019-.003.037-.01.055-.016a.143.143 0 0 0-.062-.028 4.922 4.922 0 0 1-2.266-1.183A4.941 4.941 0 0 1 1.665 9.53a5.07 5.07 0 0 1-.31-1.718c-.001-.046.02-.057.06-.036l.033.017c.623.33 1.29.518 1.994.567.041.003.084 0 .127 0-1.056-.757-1.757-1.75-2.044-3.017-.287-1.263-.096-2.463.544-3.607a14.21 14.21 0 0 0 4.567 3.686 13.984 13.984 0 0 0 5.658 1.507c.005-.017.008-.022.007-.028a4.884 4.884 0 0 1-.078-1.755 4.92 4.92 0 0 1 1.386-2.831c.43-.444.932-.79 1.496-1.044a4.811 4.811 0 0 1 1.463-.405l.306-.034" fill="#919191" fill-rule="nonzero"/></svg>