<svg width="25" height="25" viewBox="0 0 25 25" xmlns="http://www.w3.org/2000/svg"><path d="M7.518.491c-1.287.058-2.164.262-2.933.56a5.936 5.936 0 0 0-2.14 1.394A5.912 5.912 0 0 0 1.05 4.586C.752 5.354.548 6.232.49 7.52.43 8.807.417 9.219.417 12.5c0 3.282.013 3.694.072 4.982.06 1.286.263 2.165.561 2.933.308.794.721 1.469 1.395 2.14a5.9 5.9 0 0 0 2.14 1.394c.77.298 1.646.503 2.933.561 1.29.059 1.7.073 4.981.073 3.282 0 3.694-.013 4.983-.073 1.285-.058 2.164-.263 2.932-.561a5.945 5.945 0 0 0 2.141-1.394 5.933 5.933 0 0 0 1.392-2.14c.299-.768.505-1.647.562-2.933.058-1.29.073-1.7.073-4.981 0-3.282-.015-3.694-.073-4.981-.058-1.288-.263-2.166-.562-2.934a5.947 5.947 0 0 0-1.392-2.141 5.957 5.957 0 0 0-2.14-1.394c-.769-.298-1.648-.503-2.932-.56C16.194.433 15.78.417 12.5.417 9.219.417 8.807.43 7.518.49m.1 21.845c-1.179-.054-1.818-.25-2.245-.416a3.743 3.743 0 0 1-1.388-.903 3.725 3.725 0 0 1-.905-1.39c-.166-.425-.362-1.066-.416-2.243-.058-1.274-.07-1.657-.07-4.883 0-3.227.013-3.609.07-4.883.054-1.179.251-1.818.416-2.245.219-.564.48-.966.905-1.39a3.738 3.738 0 0 1 1.388-.903c.427-.166 1.066-.362 2.244-.416 1.274-.058 1.657-.07 4.882-.07 3.227 0 3.609.013 4.884.07 1.177.054 1.817.251 2.243.416.564.219.965.482 1.39.903.423.423.685.826.903 1.39.167.427.363 1.066.417 2.245.058 1.274.07 1.656.07 4.883 0 3.225-.012 3.608-.07 4.883-.054 1.177-.251 1.818-.417 2.243a3.72 3.72 0 0 1-.902 1.39 3.762 3.762 0 0 1-1.391.903c-.426.166-1.066.362-2.243.416-1.274.058-1.657.07-4.884.07-3.225 0-3.608-.012-4.882-.07M17.5 6.049a1.451 1.451 0 0 0 2.901 0 1.45 1.45 0 0 0-2.901 0M6.294 12.501a6.206 6.206 0 1 0 12.412-.001 6.206 6.206 0 0 0-12.412 0m2.178 0a4.028 4.028 0 1 1 8.056 0 4.028 4.028 0 0 1-8.056 0" fill="#919191" fill-rule="nonzero"/></svg>