<svg width="21" height="21" viewBox="0 0 21 21" xmlns="http://www.w3.org/2000/svg"><path d="M3.227 5.667C2.698 5.642 2.2 5.52 1.763 5.19c-.53-.397-.83-.946-.91-1.633a2.558 2.558 0 0 1 .218-1.42A2.127 2.127 0 0 1 2.358.99c.69-.23 1.379-.216 2.046.104.54.259.913.697 1.115 1.298.206.618.203 1.237-.048 1.837-.299.717-.828 1.141-1.525 1.322-.235.06-.48.079-.719.116zm-2.394 14.5V6.875h4.834v13.292H.833zm19.333 0h-4.472v-7.152c0-.444-.036-.886-.146-1.32-.079-.312-.2-.606-.404-.862-.258-.325-.602-.508-1.011-.582a2.397 2.397 0 0 0-1.274.1c-.463.174-.81.488-1.073.898-.188.296-.34.612-.377.966a4.12 4.12 0 0 0-.029.442l-.001 7.39v.118H6.875V7.15h4.475c.009.599.016 1.196.024 1.817.145-.193.268-.366.4-.534a3.899 3.899 0 0 1 2.477-1.48c.462-.08.929-.093 1.397-.06.674.046 1.318.2 1.921.503.73.365 1.298.902 1.721 1.589.385.627.61 1.31.74 2.027.099.54.136 1.087.136 1.634V20.167z" fill="#919191" fill-rule="nonzero"/></svg>