<svg width="13" height="25" viewBox="0 0 13 25" xmlns="http://www.w3.org/2000/svg"><path d="M7.872 13.255h.31c1.197 0 2.393-.005 3.589.003.18.001.263-.052.26-.232-.002-.055.012-.108.015-.163.052-1.063.104-2.128.153-3.191.008-.192 0-.385 0-.604h-.321c-1.251 0-2.503.002-3.754 0-.12 0-.257.033-.254-.173.011-.986-.01-1.973.028-2.957.034-.857.49-1.328 1.337-1.47.214-.035.434-.051.651-.053a110.24 110.24 0 0 1 2.136.002c.177.001.243-.048.241-.238-.009-1.136-.007-2.271-.001-3.406 0-.158-.043-.218-.21-.224-.677-.03-1.355-.09-2.034-.113-.82-.028-1.641-.05-2.452.116-1.534.313-2.729 1.097-3.461 2.509-.444.856-.621 1.784-.635 2.742-.015 1.01-.008 2.02 0 3.03.002.186-.057.242-.239.239-.82-.008-1.64.004-2.464-.008-.226-.003-.312.05-.309.297.013 1.198.007 2.396.007 3.593 0 .092.01.184.018.304h2.984v.352c-.003 3.555-.003 7.11-.012 10.664 0 .227.049.31.296.31 1.26-.014 2.518-.007 3.775-.007.355 0 .355-.001.355-.363l-.009-10.593v-.366z" fill="#919191" fill-rule="nonzero"/></svg>