<?xml version="1.0" encoding="UTF-8"?>
<svg width="24px" height="24px" viewBox="0 0 24 24" version="1.1" xmlns="http://www.w3.org/2000/svg" xmlns:xlink="http://www.w3.org/1999/xlink">
    <!-- Generator: Sketch 52.6 (67491) - http://www.bohemiancoding.com/sketch -->
    <title>Icon/Weather/BrokenClouds</title>
    <desc>Created with Sketch.</desc>
    <g id="Icon/Weather/BrokenClouds" stroke="none" stroke-width="1" fill="none" fill-rule="evenodd">
        <rect fill="transparent" x="0" y="0" width="24" height="24"></rect>
        <path d="M23.08,13.08886 C23.08,14.99186 21.536,16.52786 19.641,16.52786 L13.207,16.52786 C15.225,16.52786 16.854,14.89086 16.854,12.87386 C16.854,10.85586 15.225,9.21886 13.207,9.21886 C12.776,9.21886 12.367,9.29786 11.979,9.43386 C11.878,9.24786 11.77,9.06786 11.642,8.89586 C12.41,8.06986 13.508,7.55986 14.722,7.55986 C16.366,7.55986 17.781,8.49386 18.492,9.85786 C18.851,9.72886 19.238,9.65686 19.641,9.65686 C21.536,9.65686 23.08,11.19286 23.08,13.08886" id="Fill-1" fill="#616161" fill-rule="nonzero" opacity="0.4"></path>
        <path d="M16.8545,12.87356 C16.8545,14.89156 15.2245,16.52856 13.2075,16.52856 L3.7645,16.52856 C2.2345,16.52856 1.0005,15.29356 1.0005,13.76456 C1.0005,12.33456 2.0915,11.15756 3.4915,11.02056 C3.7355,8.75956 5.6465,6.99956 7.9725,6.99956 C9.4875,6.99956 10.8305,7.74656 11.6415,8.89556 C11.7705,9.06756 11.8785,9.24756 11.9795,9.43456 C12.3665,9.29756 12.7755,9.21856 13.2075,9.21856 C15.2245,9.21856 16.8545,10.85556 16.8545,12.87356" id="Fill-3" fill="#616161" fill-rule="nonzero"></path>
    </g>
</svg>