<?xml version="1.0" encoding="UTF-8"?>
<svg width="24px" height="24px" viewBox="0 0 24 24" version="1.1" xmlns="http://www.w3.org/2000/svg" xmlns:xlink="http://www.w3.org/1999/xlink">
    <!-- Generator: Sketch 52.6 (67491) - http://www.bohemiancoding.com/sketch -->
    <title>Icon/Weather/ClearSky</title>
    <desc>Created with Sketch.</desc>
    <g id="Icon/Weather/ClearSky" stroke="none" stroke-width="1" fill="none" fill-rule="evenodd">
        <rect fill="transparent" x="0" y="0" width="24" height="24"></rect>
        <path d="M6.56325464,15.5608663 L5.87689307,18.1224795 L8.43114394,17.4383869 C7.68727439,16.9469754 7.0516991,16.3069455 6.56325464,15.5608663 Z M5.50122402,12 C5.50122402,11.4622853 5.57366914,10.9432412 5.69615369,10.4436146 L3,12 L5.69615369,13.5563854 C5.57366914,13.0567588 5.50122402,12.5377147 5.50122402,12 Z M15.5949961,17.4451083 L18.1231069,18.1224795 L17.4472014,15.6026886 C16.9609975,16.3353249 16.3291565,16.9619119 15.5949961,17.4451083 Z M12.018298,18.5168036 C11.4775735,18.5168036 10.9547737,18.4443615 10.4528858,18.3196415 L11.9996266,21 L13.5411394,18.3308439 C13.0519481,18.4480956 12.5440853,18.5168036 12.018298,18.5168036 Z M12.018298,5.48319642 C12.5440853,5.48319642 13.0519481,5.55190441 13.5411394,5.66915609 L11.9996266,3 L10.4528858,5.68035848 C10.9547737,5.55638536 11.4775735,5.48319642 12.018298,5.48319642 Z M8.43114394,6.56161314 L5.87689307,5.87752054 L6.56325464,8.43913368 C7.0516991,7.69305452 7.68727439,7.05302465 8.43114394,6.56161314 Z M21,12 L18.347164,10.4690067 C18.4666611,10.9604182 18.535372,11.4712472 18.535372,12 C18.535372,12.528006 18.4666611,13.0395818 18.347164,13.5317401 L21,12 Z M17.4472014,8.39731143 L18.1231069,5.87752054 L15.5949961,6.55489171 C16.3291565,7.03808813 16.9609975,7.66467513 17.4472014,8.39731143 Z M17.3874528,12 C17.3874528,14.965646 14.9833202,17.368932 12.018298,17.368932 C9.0532758,17.368932 6.64914319,14.965646 6.64914319,12 C6.64914319,9.03510082 9.0532758,6.63106796 12.018298,6.63106796 C14.9833202,6.63106796 17.3874528,9.03510082 17.3874528,12 Z" id="Fill-1" fill="#616161" fill-rule="nonzero"></path>
    </g>
</svg>