<?xml version="1.0" encoding="UTF-8"?>
<svg width="24px" height="24px" viewBox="0 0 24 24" version="1.1" xmlns="http://www.w3.org/2000/svg" xmlns:xlink="http://www.w3.org/1999/xlink">
    <!-- Generator: Sketch 52.6 (67491) - http://www.bohemiancoding.com/sketch -->
    <title>Icon/Weather/FewClouds</title>
    <desc>Created with Sketch.</desc>
    <g id="Icon/Weather/FewClouds" stroke="none" stroke-width="1" fill="none" fill-rule="evenodd">
        <rect fill="transparent" x="0" y="0" width="24" height="24"></rect>
        <path d="M17.2825838,7.33953538 C16.141232,7.33953538 15.1506833,7.98922794 14.6662543,8.93949368 C16.7857601,9.05311241 18.4724818,10.811104 18.4724818,12.9605639 L18.4724818,12.9863863 C19.5105439,12.5329443 20.234605,11.4948822 20.234605,10.2915566 C20.234605,8.66061134 18.9135291,7.33953538 17.2825838,7.33953538 Z M19.4630306,6.97388964 C19.912341,7.26516675 20.2965789,7.64940464 20.5930205,8.09355059 L21.0030808,6.55866483 L19.4630306,6.97388964 Z M22.7600396,10.2915566 L21.1414891,9.35885009 C21.2117261,9.65529169 21.2561407,9.96929254 21.2561407,10.2915566 C21.2561407,10.6107219 21.2117261,10.9236899 21.1414891,11.225296 L22.7600396,10.2915566 Z M13.5414289,6.55866483 L13.9597524,8.12040592 C14.256194,7.6669639 14.6445635,7.27446283 15.0980055,6.97698833 L13.5414289,6.55866483 Z M17.2743207,4.80583768 L16.3323181,6.43678292 C16.6370229,6.36241429 16.9561882,6.31903259 17.2825838,6.31903259 C17.6048479,6.31903259 17.9147171,6.3582827 18.2111587,6.43265133 L17.2743207,4.80583768 Z M20.5930205,12.485431 C20.2965789,12.9347414 19.912341,13.3138148 19.4630306,13.6102564 L21.0030808,14.0203167 L20.5930205,12.485431 Z" id="Fill-1" fill="#616161" fill-rule="nonzero"></path>
        <path d="M18.472895,12.9604606 L18.472895,12.986283 C18.4605002,15.1977167 16.6632585,16.9856623 14.4487261,16.9856623 L4.0391846,16.9856623 C2.35969318,16.9856623 1.0004,15.6253362 1.0004,13.9417132 C1.0004,12.3634458 2.20372565,11.0681922 3.742743,10.9153234 C4.01336216,8.42500741 6.11944026,6.48419291 8.68309199,6.48419291 C10.6073801,6.48419291 12.272411,7.57493273 13.1007948,9.17179234 C13.5191183,9.02305509 13.9735932,8.9362917 14.4487261,8.9362917 C14.5230947,8.9362917 14.5922989,8.9362917 14.6656346,8.93939039 C16.7851404,9.05300912 18.472895,10.8110008 18.472895,12.9604606" id="Fill-3" fill="#616161" fill-rule="nonzero" opacity="0.7"></path>
    </g>
</svg>