<?xml version="1.0" encoding="UTF-8"?>
<svg width="24px" height="24px" viewBox="0 0 24 24" version="1.1" xmlns="http://www.w3.org/2000/svg" xmlns:xlink="http://www.w3.org/1999/xlink">
    <!-- Generator: Sketch 52.6 (67491) - http://www.bohemiancoding.com/sketch -->
    <title>Icon/Weather/Mist</title>
    <desc>Created with Sketch.</desc>
    <defs>
        <polygon id="path-1" points="0.54999 0.354 6.68829 0.354 6.68829 4.2347 0.54999 4.2347"></polygon>
        <polygon id="path-3" points="0.800205 0.354 6.938505 0.354 6.938505 4.2347 0.800205 4.2347"></polygon>
        <polygon id="path-5" points="0.00042 0.354 6.13767 0.354 6.13767 4.2347 0.00042 4.2347"></polygon>
    </defs>
    <g id="Icon/Weather/Mist" stroke="none" stroke-width="1" fill="none" fill-rule="evenodd">
        <rect fill="transparent" x="0" y="0" width="24" height="24"></rect>
        <g id="Group-28" transform="translate(2.000000, 4.000000)">
            <g id="Group-8" transform="translate(13.650000, 0.646500)">
                <g id="Group-3">
                    <mask id="mask-2" fill="white">
                        <use xlink:href="#path-1"></use>
                    </mask>
                    <g id="Clip-2"></g>
                </g>
            </g>
            <g id="Group-17" transform="translate(6.300000, 0.646500)">
                <g id="Group-12">
                    <mask id="mask-4" fill="white">
                        <use xlink:href="#path-3"></use>
                    </mask>
                    <g id="Clip-11"></g>
                </g>
            </g>
            <g id="Group-26" transform="translate(0.000000, 0.646500)">
                <g id="Group-21">
                    <mask id="mask-6" fill="white">
                        <use xlink:href="#path-5"></use>
                    </mask>
                    <g id="Clip-20"></g>
                </g>
            </g>
        </g>
        <polygon id="Fill-1" fill-opacity="0.15" fill="#616161" fill-rule="nonzero" points="21.4538553 8.9676723 19.2891747 6.33687805 19.2962987 7.72198868 18.9828423 7.3393277 18.6704037 7.7169001 18.6642974 6.3531615 16.5057231 8.9676723 16.0050072 8.63487937 18.9828423 5.01791892 21.9545713 8.63487937"></polygon>
        <polygon id="Fill-4" fill-opacity="0.4" fill="#616161" fill-rule="nonzero" points="21.4538553 11.2893864 19.2891747 8.65859214 19.2962987 10.0335256 18.9828423 9.65595321 18.6704037 10.0335256 18.6642974 8.67487559 16.5057231 11.2893864 16.0050072 10.9565935 18.6704037 7.71720542 18.9828423 7.33963301 19.2962987 7.722294 21.9545713 10.9565935"></polygon>
        <polygon id="Fill-6" fill-opacity="0.7" fill="#616161" fill-rule="nonzero" points="21.4538553 13.6001092 19.2891747 10.9682972 19.2962987 12.2872563 18.9828423 11.9096839 18.6704037 12.2872563 18.6642974 10.9855984 16.5057231 13.6001092 16.0050072 13.2673162 18.6704037 10.0330168 18.9828423 9.65544436 19.2962987 10.0330168 21.9545713 13.2673162"></polygon>
        <polygon id="Fill-9" fill="#616161" fill-rule="nonzero" points="18.6699966 12.2872563 16.0056178 15.5215558 16.505316 15.8543487 18.6577841 13.2439088 18.6699966 17.887744 19.2969093 17.887744 19.283679 13.2164305 21.4534482 15.8543487 21.9541642 15.5215558 19.2969093 12.2872563 18.983453 11.9096839"></polygon>
        <polygon id="Fill-10" fill-opacity="0.15" fill="#616161" fill-rule="nonzero" points="14.5723692 8.9676723 12.4076886 6.33687805 12.4137949 7.72198868 12.1013563 7.3393277 11.7889177 7.7169001 11.7828114 6.3531615 9.62423704 8.9676723 9.12352108 8.63487937 12.1013563 5.01791892 15.0730852 8.63487937"></polygon>
        <polygon id="Fill-13" fill-opacity="0.4" fill="#616161" fill-rule="nonzero" points="14.5723692 11.2893864 12.4076886 8.65859214 12.4137949 10.0335256 12.1013563 9.65595321 11.7889177 10.0335256 11.7828114 8.67487559 9.62423704 11.2893864 9.12352108 10.9565935 11.7889177 7.71720542 12.1013563 7.33963301 12.4137949 7.722294 15.0730852 10.9565935"></polygon>
        <polygon id="Fill-15" fill-opacity="0.7" fill="#616161" fill-rule="nonzero" points="14.5723692 13.6001092 12.4076886 10.9682972 12.4137949 12.2872563 12.1013563 11.9096839 11.7889177 12.2872563 11.7828114 10.9855984 9.62423704 13.6001092 9.12352108 13.2673162 11.7889177 10.0330168 12.1013563 9.65544436 12.4137949 10.0330168 15.0730852 13.2673162"></polygon>
        <polygon id="Fill-18" fill="#616161" fill-rule="nonzero" points="11.7885106 12.2872563 9.12311399 15.5215558 9.62382996 15.8543487 11.7752803 13.2439088 11.7885106 17.887744 12.4144055 17.887744 12.4021929 13.2164305 14.5719621 15.8543487 15.0726781 15.5215558 12.4144055 12.2872563 12.1019669 11.9096839"></polygon>
        <polygon id="Fill-19" fill-opacity="0.15" fill="#616161" fill-rule="nonzero" points="7.69088314 8.9676723 5.52620253 6.33687805 5.53230882 7.72198868 5.21885249 7.3393277 4.90743158 7.7169001 4.90030757 6.3531615 2.74275097 8.9676723 2.24203501 8.63487937 5.21885249 5.01791892 8.19058139 8.63487937"></polygon>
        <polygon id="Fill-22" fill-opacity="0.4" fill="#616161" fill-rule="nonzero" points="7.69088314 11.2893864 5.52620253 8.65859214 5.53230882 10.0335256 5.21885249 9.65595321 4.90743158 10.0335256 4.90030757 8.67487559 2.74275097 11.2893864 2.24203501 10.9565935 4.90743158 7.71720542 5.21885249 7.33963301 5.53230882 7.722294 8.19058139 10.9565935"></polygon>
        <polygon id="Fill-24" fill-opacity="0.7" fill="#616161" fill-rule="nonzero" points="7.69088314 13.6001092 5.52620253 10.9682972 5.53230882 12.2872563 5.21885249 11.9096839 4.90743158 12.2872563 4.90030757 10.9855984 2.74275097 13.6001092 2.24203501 13.2673162 4.90743158 10.0330168 5.21885249 9.65544436 5.53230882 10.0330168 8.19058139 13.2673162"></polygon>
        <polygon id="Fill-27" fill="#616161" fill-rule="nonzero" points="4.9070245 12.2872563 2.24162792 15.5215558 2.74234389 15.8543487 4.8937942 13.2439088 4.9070245 17.887744 5.53291945 17.887744 5.52070687 13.2164305 7.69047606 15.8543487 8.19119202 15.5215558 5.53291945 12.2872563 5.21946312 11.9096839"></polygon>
    </g>
</svg>