<?xml version="1.0" encoding="UTF-8"?>
<svg width="24px" height="24px" viewBox="0 0 24 24" version="1.1" xmlns="http://www.w3.org/2000/svg" xmlns:xlink="http://www.w3.org/1999/xlink">
    <!-- Generator: Sketch 52.6 (67491) - http://www.bohemiancoding.com/sketch -->
    <title>Icon/Weather/Rain</title>
    <desc>Created with Sketch.</desc>
    <g id="Icon/Weather/Rain" stroke="none" stroke-width="1" fill="none" fill-rule="evenodd">
        <rect fill="transparent" x="0" y="0" width="24" height="24"></rect>
        <path d="M17.028,4.9219 C16.163,4.9219 15.412,5.4109 15.043,6.1339 C16.652,6.2189 17.928,7.5529 17.928,9.1839 L17.928,9.2049 C18.723,8.8579 19.269,8.0699 19.269,7.1549 C19.269,5.9219 18.269,4.9219 17.028,4.9219 Z M18.68,4.6379 C19.021,4.8649 19.311,5.1559 19.539,5.4889 L19.85,4.3259 L18.68,4.6379 Z M21.183,7.1549 L19.957,6.4459 C20.013,6.6729 20.042,6.9149 20.042,7.1549 C20.042,7.4039 20.013,7.6379 19.957,7.8649 L21.183,7.1549 Z M14.192,4.3259 L14.51,5.5099 C14.738,5.1629 15.028,4.8719 15.369,4.6449 L14.192,4.3259 Z M17.021,2.9999 L16.304,4.2339 C16.539,4.1769 16.78,4.1419 17.028,4.1419 C17.276,4.1419 17.51,4.1769 17.737,4.2339 L17.021,2.9999 Z M19.539,8.8219 C19.311,9.1619 19.021,9.4529 18.68,9.6729 L19.85,9.9849 L19.539,8.8219 Z" id="Fill-1" fill="#616161" fill-rule="nonzero" opacity="0.4"></path>
        <path d="M17.9283,9.1836 L17.9283,9.2046 C17.9143,10.8786 16.5603,12.2326 14.8793,12.2326 L6.9873,12.2326 C5.7103,12.2326 4.6823,11.2046 4.6823,9.9286 C4.6823,8.7296 5.5893,7.7446 6.7603,7.6306 C6.9653,5.7446 8.5613,4.2696 10.5113,4.2696 C11.9653,4.2696 13.2273,5.0996 13.8583,6.3046 C14.1773,6.1906 14.5183,6.1276 14.8793,6.1276 C14.9363,6.1276 14.9863,6.1276 15.0423,6.1346 C16.6523,6.2196 17.9283,7.5526 17.9283,9.1836" id="Fill-3" fill="#616161" fill-rule="nonzero"></path>
        <path d="M7.40043841,13.1345641 L7.78836159,13.3546359 L7.43436159,13.9786359 L7.04643841,13.7585641 L7.40043841,13.1345641 Z M6.77733099,14.2341772 L7.16526901,14.4542228 L6.35662581,15.8798516 L5.96868779,15.6598059 L6.77733099,14.2341772 Z M5.47531185,16.5296221 L5.86324986,16.7496678 L5.14426901,18.0172228 L4.75633099,17.7971772 L5.47531185,16.5296221 Z M4.62203841,18.0354641 L5.00996159,18.2555359 L4.65596159,18.8795359 L4.26803841,18.6594641 L4.62203841,18.0354641 Z M12.1855384,13.1345641 L12.5734616,13.3546359 L12.2194616,13.9786359 L11.8315384,13.7585641 L12.1855384,13.1345641 Z M11.562531,14.2341772 L11.950469,14.4542228 L11.1418258,15.8798516 L10.7538878,15.6598059 L11.562531,14.2341772 Z M10.2605118,16.5296221 L10.6484499,16.7496678 L9.92946901,18.0172228 L9.54153099,17.7971772 L10.2605118,16.5296221 Z M9.40723841,18.0354641 L9.79516159,18.2555359 L9.44116159,18.8795359 L9.05323841,18.6594641 L9.40723841,18.0354641 Z M16.9707384,13.1345641 L17.3586616,13.3546359 L17.0046616,13.9786359 L16.6167384,13.7585641 L16.9707384,13.1345641 Z M16.346631,14.2341772 L16.734569,14.4542228 L15.9259258,15.8798516 L15.5379878,15.6598059 L16.346631,14.2341772 Z M15.0446118,16.5296221 L15.4325499,16.7496678 L14.713569,18.0172228 L14.325631,17.7971772 L15.0446118,16.5296221 Z M14.1914384,18.0354641 L14.5793616,18.2555359 L14.2253616,18.8795359 L13.8374384,18.6594641 L14.1914384,18.0354641 Z M5.13283841,14.0916641 L5.52076159,14.3117359 L5.16676159,14.9357359 L4.77883841,14.7156641 L5.13283841,14.0916641 Z M4.50971775,15.1908005 L4.89768225,15.4107995 L4.08921073,16.8365256 L3.70124622,16.6165267 L4.50971775,15.1908005 Z M3.20797503,17.4864022 L3.59593954,17.7064012 L2.87668225,18.9747995 L2.48871775,18.7548005 L3.20797503,17.4864022 Z M2.35446286,18.9921974 L2.74253714,19.2120026 L2.38853714,19.8370026 L2.00046286,19.6171974 L2.35446286,18.9921974 Z M9.91793841,14.0916641 L10.3058616,14.3117359 L9.95186159,14.9357359 L9.56393841,14.7156641 L9.91793841,14.0916641 Z M9.29391775,15.1908005 L9.68188225,15.4107995 L8.87341073,16.8365256 L8.48544622,16.6165267 L9.29391775,15.1908005 Z M7.99217503,17.4864022 L8.38013954,17.7064012 L7.66088225,18.9747995 L7.27291775,18.7548005 L7.99217503,17.4864022 Z M7.13856286,18.9921974 L7.52663714,19.2120026 L7.17263714,19.8370026 L6.78456286,19.6171974 L7.13856286,18.9921974 Z M14.7021384,14.0916641 L15.0900616,14.3117359 L14.7360616,14.9357359 L14.3481384,14.7156641 L14.7021384,14.0916641 Z M14.0791177,15.1908005 L14.4670823,15.4107995 L13.6586107,16.8365256 L13.2706462,16.6165267 L14.0791177,15.1908005 Z M12.777375,17.4864022 L13.1653395,17.7064012 L12.4460823,18.9747995 L12.0581177,18.7548005 L12.777375,17.4864022 Z M11.9237629,18.9921974 L12.3118371,19.2120026 L11.9578371,19.8370026 L11.5697629,19.6171974 L11.9237629,18.9921974 Z" id="Combined-Shape" fill="#616161" fill-rule="nonzero" opacity="0.7"></path>
    </g>
</svg>