<?xml version="1.0" encoding="UTF-8"?>
<svg width="24px" height="24px" viewBox="0 0 24 24" version="1.1" xmlns="http://www.w3.org/2000/svg" xmlns:xlink="http://www.w3.org/1999/xlink">
    <!-- Generator: Sketch 52.6 (67491) - http://www.bohemiancoding.com/sketch -->
    <title>Icon/Weather/ShowerRain</title>
    <desc>Created with Sketch.</desc>
    <g id="Icon/Weather/ShowerRain" stroke="none" stroke-width="1" fill="none" fill-rule="evenodd">
        <rect fill="transparent" x="0" y="0" width="24" height="24"></rect>
        <path d="M22.2412,8.9329 C22.2412,10.4739 20.9952,11.7189 19.4602,11.7189 L12.9232,11.7189 C14.5542,11.7189 15.8812,10.3919 15.8812,8.7609 C15.8812,7.1259 14.5542,5.8029 12.9232,5.8029 C12.8592,5.8029 12.7962,5.8029 12.7372,5.8119 C13.3672,4.9879 14.3592,4.4569 15.4782,4.4569 C16.8052,4.4569 17.9562,5.2139 18.5262,6.3149 C18.8212,6.2109 19.1342,6.1519 19.4602,6.1519 C20.9952,6.1519 22.2412,7.3969 22.2412,8.9329" id="Fill-1" fill="#616161" fill-rule="nonzero" opacity="0.4"></path>
        <path d="M15.8808,8.761 C15.8808,10.392 14.5538,11.719 12.9228,11.719 L5.2728,11.719 C4.0398,11.719 3.0388,10.718 3.0388,9.481 C3.0388,8.322 3.9218,7.37 5.0548,7.257 C5.2488,5.427 6.8028,4 8.6878,4 C10.1008,4 11.3238,4.802 11.9308,5.975 C12.1848,5.885 12.4568,5.825 12.7368,5.812 C12.7958,5.803 12.8598,5.803 12.9228,5.803 C14.5538,5.803 15.8808,7.126 15.8808,8.761" id="Fill-4" fill="#616161" fill-rule="nonzero"></path>
        <path d="M8.48350443,12.6727954 L8.87769557,12.8960046 L8.51869557,13.5300046 L8.12450443,13.3067954 L8.48350443,12.6727954 Z M7.85078203,13.7888585 L8.24481797,14.0123415 L7.42390002,15.4597495 L7.02986408,15.2362664 L7.85078203,13.7888585 Z M6.53652397,16.1061029 L6.93055991,16.329586 L6.19281797,17.6303415 L5.79878203,17.4068585 L6.53652397,16.1061029 Z M5.66220443,17.6483954 L6.05639557,17.8716046 L5.69739557,18.5056046 L5.30320443,18.2823954 L5.66220443,17.6483954 Z M13.3409044,12.6727954 L13.7350956,12.8960046 L13.3760956,13.5300046 L12.9819044,13.3067954 L13.3409044,12.6727954 Z M12.708182,13.7888585 L13.102218,14.0123415 L12.2813,15.4597495 L11.8872641,15.2362664 L12.708182,13.7888585 Z M11.393924,16.1061029 L11.7879599,16.329586 L11.050218,17.6303415 L10.656182,17.4068585 L11.393924,16.1061029 Z M10.5197044,17.6483954 L10.9138956,17.8716046 L10.5548956,18.5056046 L10.1607044,18.2823954 L10.5197044,17.6483954 Z M18.1993044,12.6727954 L18.5934956,12.8960046 L18.2344956,13.5300046 L17.8403044,13.3067954 L18.1993044,12.6727954 Z M17.566582,13.7888585 L17.960618,14.0123415 L17.1397,15.4597495 L16.7456641,15.2362664 L17.566582,13.7888585 Z M16.252324,16.1061029 L16.6463599,16.329586 L15.908618,17.6303415 L15.514582,17.4068585 L16.252324,16.1061029 Z M15.3780044,17.6483954 L15.7721956,17.8716046 L15.4131956,18.5056046 L15.0190044,18.2823954 L15.3780044,17.6483954 Z M6.18080443,13.6444954 L6.57499557,13.8677046 L6.21599557,14.5017046 L5.82180443,14.2784954 L6.18080443,13.6444954 Z M5.54808203,14.7605585 L5.94211797,14.9840415 L5.12120002,16.4314495 L4.72716408,16.2079664 L5.54808203,14.7605585 Z M4.23382397,17.0778029 L4.62785991,17.301286 L3.89011797,18.6020415 L3.49608203,18.3785585 L4.23382397,17.0778029 Z M3.35950443,18.6200954 L3.75369557,18.8433046 L3.39469557,19.4773046 L3.00050443,19.2540954 L3.35950443,18.6200954 Z M11.0382044,13.6444954 L11.4323956,13.8677046 L11.0733956,14.5017046 L10.6792044,14.2784954 L11.0382044,13.6444954 Z M10.405482,14.7605585 L10.799518,14.9840415 L9.97860002,16.4314495 L9.58456408,16.2079664 L10.405482,14.7605585 Z M9.09122397,17.0778029 L9.48525991,17.301286 L8.74751797,18.6020415 L8.35348203,18.3785585 L9.09122397,17.0778029 Z M8.21690443,18.6200954 L8.61109557,18.8433046 L8.25209557,19.4773046 L7.85790443,19.2540954 L8.21690443,18.6200954 Z M15.8966044,13.6444954 L16.2907956,13.8677046 L15.9317956,14.5017046 L15.5376044,14.2784954 L15.8966044,13.6444954 Z M15.263882,14.7605585 L15.657918,14.9840415 L14.837,16.4314495 L14.4429641,16.2079664 L15.263882,14.7605585 Z M13.949624,17.0778029 L14.3436599,17.301286 L13.605918,18.6020415 L13.211882,18.3785585 L13.949624,17.0778029 Z M13.0753044,18.6200954 L13.4694956,18.8433046 L13.1104956,19.4773046 L12.7163044,19.2540954 L13.0753044,18.6200954 Z" id="Combined-Shape" fill="#616161" fill-rule="nonzero" opacity="0.7"></path>
    </g>
</svg>