<?xml version="1.0" encoding="UTF-8"?>
<svg width="24px" height="24px" viewBox="0 0 24 24" version="1.1" xmlns="http://www.w3.org/2000/svg" xmlns:xlink="http://www.w3.org/1999/xlink">
    <!-- Generator: Sketch 52.6 (67491) - http://www.bohemiancoding.com/sketch -->
    <title>Icon/Weather/Snow</title>
    <desc>Created with Sketch.</desc>
    <g id="Icon/Weather/Snow" stroke="none" stroke-width="1" fill="none" fill-rule="evenodd">
        <rect fill="transparent" x="0" y="0" width="24" height="24"></rect>
        <path d="M21.3944,9.9824 C21.3944,11.5344 20.1334,12.7894 18.5814,12.7894 L11.9844,12.7894 C13.6304,12.7894 14.9674,11.4524 14.9674,9.8064 C14.9674,8.1534 13.6304,6.8164 11.9844,6.8164 C11.9214,6.8164 11.8574,6.8164 11.8014,6.8224 C12.4384,5.9964 13.4354,5.4604 14.5574,5.4604 C15.9004,5.4604 17.0614,6.2234 17.6414,7.3394 C17.9374,7.2324 18.2534,7.1694 18.5814,7.1694 C20.1334,7.1694 21.3944,8.4314 21.3944,9.9824" id="Fill-1" fill="#616161" fill-rule="nonzero" opacity="0.4"></path>
        <path d="M14.9677,9.8062 C14.9677,11.4522 13.6307,12.7892 11.9847,12.7892 L4.2577,12.7892 C3.0097,12.7892 1.9997,11.7802 1.9997,10.5312 C1.9997,9.3642 2.8897,8.3992 4.0367,8.2862 C4.2327,6.4382 5.8027,5.0002 7.7017,5.0002 C9.1337,5.0002 10.3637,5.8072 10.9817,6.9932 C11.2397,6.8982 11.5107,6.8422 11.8007,6.8232 C11.8577,6.8162 11.9217,6.8162 11.9847,6.8162 C13.6307,6.8162 14.9677,8.1532 14.9677,9.8062" id="Fill-4" fill="#616161" fill-rule="nonzero"></path>
        <path d="M5.6146,14.7417 L6.0216,14.9747 L5.8476,15.2727 L5.4406,15.0387 L5.4406,15.5007 L5.0976,15.5007 L5.0976,15.0387 L4.6956,15.2727 L4.5216,14.9747 L4.9286,14.7417 L4.5216,14.5087 L4.6956,14.2107 L5.0976,14.4447 L5.0976,13.9687 L5.4406,13.9687 L5.4406,14.4447 L5.8476,14.2107 L6.0216,14.5087 L5.6146,14.7417 Z M10.1893,14.7417 L10.5963,14.9747 L10.4223,15.2727 L10.0153,15.0387 L10.0153,15.5007 L9.6723,15.5007 L9.6723,15.0387 L9.2703,15.2727 L9.0963,14.9747 L9.5033,14.7417 L9.0963,14.5087 L9.2703,14.2107 L9.6723,14.4447 L9.6723,13.9687 L10.0153,13.9687 L10.0153,14.4447 L10.4223,14.2107 L10.5963,14.5087 L10.1893,14.7417 Z M14.764,14.7417 L15.171,14.9747 L14.997,15.2727 L14.59,15.0387 L14.59,15.5007 L14.247,15.5007 L14.247,15.0387 L13.845,15.2727 L13.671,14.9747 L14.078,14.7417 L13.671,14.5087 L13.845,14.2107 L14.247,14.4447 L14.247,13.9687 L14.59,13.9687 L14.59,14.4447 L14.997,14.2107 L15.171,14.5087 L14.764,14.7417 Z M19.3387,14.7417 L19.7457,14.9747 L19.5717,15.2727 L19.1647,15.0387 L19.1647,15.5007 L18.8217,15.5007 L18.8217,15.0387 L18.4197,15.2727 L18.2457,14.9747 L18.6527,14.7417 L18.2457,14.5087 L18.4197,14.2107 L18.8217,14.4447 L18.8217,13.9687 L19.1647,13.9687 L19.1647,14.4447 L19.5717,14.2107 L19.7457,14.5087 L19.3387,14.7417 Z M5.6146,18.8589 L6.0216,19.0919 L5.8476,19.3899 L5.4406,19.1559 L5.4406,19.6179 L5.0976,19.6179 L5.0976,19.1559 L4.6956,19.3899 L4.5216,19.0919 L4.9286,18.8589 L4.5216,18.6259 L4.6956,18.3279 L5.0976,18.5619 L5.0976,18.0859 L5.4406,18.0859 L5.4406,18.5619 L5.8476,18.3279 L6.0216,18.6259 L5.6146,18.8589 Z M10.1893,18.8589 L10.5963,19.0919 L10.4223,19.3899 L10.0153,19.1559 L10.0153,19.6179 L9.6723,19.6179 L9.6723,19.1559 L9.2703,19.3899 L9.0963,19.0919 L9.5033,18.8589 L9.0963,18.6259 L9.2703,18.3279 L9.6723,18.5619 L9.6723,18.0859 L10.0153,18.0859 L10.0153,18.5619 L10.4223,18.3279 L10.5963,18.6259 L10.1893,18.8589 Z M14.764,18.8589 L15.171,19.0919 L14.997,19.3899 L14.59,19.1559 L14.59,19.6179 L14.247,19.6179 L14.247,19.1559 L13.845,19.3899 L13.671,19.0919 L14.078,18.8589 L13.671,18.6259 L13.845,18.3279 L14.247,18.5619 L14.247,18.0859 L14.59,18.0859 L14.59,18.5619 L14.997,18.3279 L15.171,18.6259 L14.764,18.8589 Z M19.3387,18.8589 L19.7457,19.0919 L19.5717,19.3899 L19.1647,19.1559 L19.1647,19.6179 L18.8217,19.6179 L18.8217,19.1559 L18.4197,19.3899 L18.2457,19.0919 L18.6527,18.8589 L18.2457,18.6259 L18.4197,18.3279 L18.8217,18.5619 L18.8217,18.0859 L19.1647,18.0859 L19.1647,18.5619 L19.5717,18.3279 L19.7457,18.6259 L19.3387,18.8589 Z M3.3275,16.5718 L3.7345,16.8048 L3.5605,17.1018 L3.1535,16.8688 L3.1535,17.3308 L2.8105,17.3308 L2.8105,16.8688 L2.4075,17.1018 L2.2335,16.8048 L2.6405,16.5718 L2.2335,16.3388 L2.4075,16.0408 L2.8105,16.2748 L2.8105,15.7988 L3.1535,15.7988 L3.1535,16.2748 L3.5605,16.0408 L3.7345,16.3388 L3.3275,16.5718 Z M7.9022,16.5718 L8.3092,16.8048 L8.1352,17.1018 L7.7282,16.8688 L7.7282,17.3308 L7.3852,17.3308 L7.3852,16.8688 L6.9822,17.1018 L6.8082,16.8048 L7.2152,16.5718 L6.8082,16.3388 L6.9822,16.0408 L7.3852,16.2748 L7.3852,15.7988 L7.7282,15.7988 L7.7282,16.2748 L8.1352,16.0408 L8.3092,16.3388 L7.9022,16.5718 Z M12.4769,16.5718 L12.8839,16.8048 L12.7099,17.1018 L12.3029,16.8688 L12.3029,17.3308 L11.9599,17.3308 L11.9599,16.8688 L11.5569,17.1018 L11.3829,16.8048 L11.7899,16.5718 L11.3829,16.3388 L11.5569,16.0408 L11.9599,16.2748 L11.9599,15.7988 L12.3029,15.7988 L12.3029,16.2748 L12.7099,16.0408 L12.8839,16.3388 L12.4769,16.5718 Z M17.0516,16.5718 L17.4586,16.8048 L17.2846,17.1018 L16.8776,16.8688 L16.8776,17.3308 L16.5346,17.3308 L16.5346,16.8688 L16.1316,17.1018 L15.9576,16.8048 L16.3646,16.5718 L15.9576,16.3388 L16.1316,16.0408 L16.5346,16.2748 L16.5346,15.7988 L16.8776,15.7988 L16.8776,16.2748 L17.2846,16.0408 L17.4586,16.3388 L17.0516,16.5718 Z" id="Combined-Shape" fill="#616161" fill-rule="nonzero" opacity="0.7"></path>
    </g>
</svg>