<?xml version="1.0" encoding="UTF-8"?>
<svg width="24px" height="24px" viewBox="0 0 24 24" version="1.1" xmlns="http://www.w3.org/2000/svg" xmlns:xlink="http://www.w3.org/1999/xlink">
    <!-- Generator: Sketch 52.6 (67491) - http://www.bohemiancoding.com/sketch -->
    <title>Icon/Weather/Thunderstorm</title>
    <desc>Created with Sketch.</desc>
    <g id="Icon/Weather/Thunderstorm" stroke="none" stroke-width="1" fill="none" fill-rule="evenodd">
        <rect fill="transparent" x="0" y="0" width="24" height="24"></rect>
        <path d="M21.3434,9.9724 C21.3434,11.5164 20.0914,12.7744 18.5404,12.7744 L11.9574,12.7744 C13.6024,12.7744 14.9404,11.4364 14.9404,9.7924 C14.9404,8.1484 13.6024,6.8104 11.9574,6.8104 C11.8984,6.8104 11.8374,6.8104 11.7784,6.8174 C12.4164,5.9924 13.4084,5.4594 14.5274,5.4594 C15.8644,5.4594 17.0304,6.2184 17.6024,7.3294 C17.8954,7.2294 18.2144,7.1704 18.5404,7.1704 C20.0914,7.1704 21.3434,8.4214 21.3434,9.9724" id="Fill-1" fill="#616161" fill-rule="nonzero" opacity="0.4"></path>
        <path d="M14.9401,9.7927 C14.9401,11.4367 13.6021,12.7747 11.9581,12.7747 L4.2501,12.7747 C3.0111,12.7747 2.0001,11.7627 2.0001,10.5187 C2.0001,9.3537 2.8921,8.3877 4.0301,8.2817 C4.2301,6.4307 5.7941,4.9997 7.6911,4.9997 C9.1161,4.9997 10.3471,5.8057 10.9601,6.9897 C11.2191,6.8967 11.4921,6.8367 11.7781,6.8167 C11.8371,6.8107 11.8981,6.8107 11.9581,6.8107 C13.6021,6.8107 14.9401,8.1477 14.9401,9.7927" id="Fill-4" fill="#616161" fill-rule="nonzero"></path>
        <polygon id="Fill-7" fill="#616161" fill-rule="nonzero" points="8.0104 13.9407 12.2014 13.9407 10.7584 16.0127 12.2014 16.0127 9.9354 20.5997 9.7874 17.1037 8.4384 17.1037"></polygon>
        <polygon id="Fill-10" fill="#616161" fill-rule="nonzero" opacity="0.7" points="13.3912 13.9407 15.4872 13.9407 14.8642 14.8347 15.6232 14.8067 14.3542 17.4397 14.2802 15.6917 13.6052 15.6917"></polygon>
    </g>
</svg>